<svg xmlns="http://www.w3.org/2000/svg" width="533.454" height="505.221" viewBox="0 0 533.454 505.221">
  <g id="cessation" transform="translate(-621.552 -1261.586)">
    <ellipse id="Ellipse_2" data-name="Ellipse 2" cx="266.727" cy="18" rx="266.727" ry="18" transform="translate(621.552 1730.807)" fill="#e6e6e6"/>
    <circle id="Ellipse_4" data-name="Ellipse 4" cx="210.504" cy="210.504" r="210.504" transform="translate(650.552 1329.894)" fill="#3f3d56"/>
    <circle id="Ellipse_5" data-name="Ellipse 5" cx="193.078" cy="193.078" r="193.078" transform="translate(667.978 1347.32)" fill="#fff"/>
    <circle id="Ellipse_6" data-name="Ellipse 6" cx="25.79" cy="25.79" r="25.79" transform="translate(834.569 1515.305)" fill="#3f3d56"/>
    <rect id="Rectangle_1" data-name="Rectangle 1" width="11.153" height="20.911" transform="translate(854.782 1357.079)" fill="#3f3d56"/>
    <rect id="Rectangle_2" data-name="Rectangle 2" width="11.153" height="20.911" transform="translate(854.782 1704.201)" fill="#3f3d56"/>
    <rect id="Rectangle_3" data-name="Rectangle 3" width="11.153" height="20.911" transform="translate(697.253 1535.519) rotate(90)" fill="#3f3d56"/>
    <rect id="Rectangle_4" data-name="Rectangle 4" width="11.153" height="20.911" transform="translate(1044.375 1535.519) rotate(90)" fill="#3f3d56"/>
    <path id="Tracé_7" data-name="Tracé 7" d="M450.924,326.286l9.531-21.793L579.88,370.635Z" transform="translate(402 1226.005)" fill="#3f3d56"/>
    <rect id="Rectangle_5" data-name="Rectangle 5" width="54.368" height="62.733" transform="translate(833.871 1279.011)" fill="#3f3d56"/>
    <ellipse id="Ellipse_7" data-name="Ellipse 7" cx="62.733" cy="17.426" rx="62.733" ry="17.426" transform="translate(798.323 1261.586)" fill="#3f3d56"/>
    <path id="Tracé_8" data-name="Tracé 8" d="M730.2,531.283l-3.485,4.879s-16.032,18.82-16.729,9.758,11.849-15.335,11.849-15.335l6.97-4.182Z" transform="translate(248.307 1046.406)" fill="#ffb8b8"/>
    <path id="Tracé_9" data-name="Tracé 9" d="M829.418,547.745l2.918,5.238s10.148,22.544,1.66,19.3-8.788-17.272-8.788-17.272l-.8-8.09Z" transform="translate(248.307 1046.406)" fill="#ffb8b8"/>
    <circle id="Ellipse_8" data-name="Ellipse 8" cx="21.224" cy="21.224" r="21.224" transform="translate(1040.81 1458.823)" fill="#2f2e41"/>
    <path id="Tracé_10" data-name="Tracé 10" d="M811.751,607.957l2.788,18.123v5.576h16.032v-6.97s.7-12.547-2.091-16.032S811.751,607.957,811.751,607.957Z" transform="translate(248.307 1046.406)" fill="#ffb8b8"/>
    <path id="Tracé_11" data-name="Tracé 11" d="M783.173,607.957l2.788,18.123v5.576h16.032v-6.97s.7-12.547-2.091-16.032S783.173,607.957,783.173,607.957Z" transform="translate(248.307 1046.406)" fill="#ffb8b8"/>
    <path id="Tracé_12" data-name="Tracé 12" d="M793.961,462.384s-6.166,3.25-1.955,10.643S820.929,556.9,820.929,556.9l14.256-4.047-12.572-48.37-7.2-30.4Z" transform="translate(248.307 1046.406)" fill="#00bfa6"/>
    <circle id="Ellipse_9" data-name="Ellipse 9" cx="16.032" cy="16.032" r="16.032" transform="translate(1043.678 1469.998)" fill="#ffb8b8"/>
    <path id="Tracé_13" data-name="Tracé 13" d="M818.722,442.063l-2.091,32.76-14.638-10.455s4.879-19.517,3.485-20.911Z" transform="translate(248.307 1046.406)" fill="#ffb8b8"/>
    <path id="Tracé_14" data-name="Tracé 14" d="M818.722,472.036l-15.769-11.677s-7.233-2.961-9.324.525-12.547,55.066-6.97,64.824c0,0,29.972,6.273,36.246,2.788l2.788-18.123s3.485-11.152-2.091-18.123Z" transform="translate(248.307 1046.406)" fill="#00bfa6"/>
    <path id="Tracé_15" data-name="Tracé 15" d="M797.811,461.58s-5.576-4.182-10.456,2.788-63.43,62.036-63.43,62.036l9.758,11.153,38.337-32.064,24.4-19.517Z" transform="translate(248.307 1046.406)" fill="#00bfa6"/>
    <path id="Tracé_16" data-name="Tracé 16" d="M823.252,528.147s-34.5-6.622-37.988-1.743l-.7,7.667s-7.667,14.638-3.485,38.337,1.394,38.337,1.394,38.337,18.82-2.091,32.76,0,16.032,0,16.032,0Z" transform="translate(248.307 1046.406)" fill="#2f2e41"/>
    <path id="Tracé_17" data-name="Tracé 17" d="M831.965,628.868l-20.214.7,6.97,52.277s-5.576,22.3.7,23.7a70.715,70.715,0,0,0,13.244,1.394s6.273,6.273,13.244,5.576a39.035,39.035,0,0,0,13.244-4.182s1.394-4.182-3.485-5.576-18.123-5.576-20.911-20.214Z" transform="translate(248.307 1046.406)" fill="#2f2e41"/>
    <path id="Tracé_18" data-name="Tracé 18" d="M803.387,628.868l-20.214.7,6.97,52.277s-5.576,22.3.7,23.7a70.715,70.715,0,0,0,13.244,1.394s6.273,6.273,13.244,5.576a39.035,39.035,0,0,0,13.244-4.182s1.394-4.182-3.485-5.576-18.123-5.576-20.911-20.214Z" transform="translate(248.307 1046.406)" fill="#2f2e41"/>
    <circle id="Ellipse_10" data-name="Ellipse 10" cx="8.782" cy="8.782" r="8.782" transform="translate(1060.676 1448.927)" fill="#2f2e41"/>
    <path id="Tracé_19" data-name="Tracé 19" d="M832.861,406.546a8.783,8.783,0,0,0-7.867-8.735,8.886,8.886,0,0,1,.914-.048,8.782,8.782,0,0,1,0,17.565,8.877,8.877,0,0,1-.915-.047,8.783,8.783,0,0,0,7.868-8.735Z" transform="translate(248.307 1046.406)" fill="#2f2e41"/>
    <ellipse id="Ellipse_11" data-name="Ellipse 11" cx="14.637" cy="8.782" rx="14.637" ry="8.782" transform="translate(1044.928 1466.765)" fill="#2f2e41"/>
  </g>
</svg>
