<svg xmlns="http://www.w3.org/2000/svg" width="398" height="259" viewBox="0 0 398 259">
  <g id="employe" transform="translate(-604 -1075)">
    <path id="Tracé_2" data-name="Tracé 2" d="M260.756,531.5H231.243a4.57,4.57,0,0,0-3.5,1.617,7,7,0,1,0,1.806,13.173L233,575.245a4.611,4.611,0,0,0,4.408,3.255h19.188A4.611,4.611,0,0,0,261,575.245l4.163-37.777a4.612,4.612,0,0,0-4.408-5.968ZM226.5,545a5,5,0,0,1,0-10c.091,0,.176.022.267.027a4.564,4.564,0,0,0,.07,2.441l2.112,6.865A4.936,4.936,0,0,1,226.5,545Z" transform="translate(405.5 754.5)" fill="#d6d6d6"/>
    <path id="Tracé_5" data-name="Tracé 5" d="M596,579.5H199c-.274,0-.5-.448-.5-1s.222-1,.5-1H596c.274,0,.5.448.5,1S596.278,579.5,596,579.5Z" transform="translate(405.5 754.5)" fill="#3f3d56"/>
    <path id="Tracé_6" data-name="Tracé 6" d="M167.075,200.927,147.64,127.442l-2.25-8.483L147.5,117l36.222-17.945,51.76,1.289,30.387,15.6.164,11.5,1.5,103.591L273.6,256.46H162.419l8.632-40.5Z" transform="translate(604 1075)" fill="#00bfa6"/>
    <path id="Tracé_7" data-name="Tracé 7" d="M493.429,576.96H464.455l-8-57.76,2.094-71.258.289-9.694,5.531-1.8a35.113,35.113,0,0,1,10.093,11.5c3.555,6.187,6.507,15.053,5.773,26.974,0,0,.656,14.077.031,23.451C479.836,504.772,487.312,545.26,493.429,576.96Z" transform="translate(405.5 754.5)" fill="#00bfa6"/>
    <path id="Tracé_8" data-name="Tracé 8" d="M365.676,520.693l-.1.734-7.687,55.533H324.571c2.672-31.466,5.812-70.8,5.39-77.109-.625-9.366.031-23.451.031-23.451-.8-12.913,2.742-22.224,6.671-28.458a37.843,37.843,0,0,1,7.226-8.483,20.153,20.153,0,0,1,1.968-1.523l5.531,1.8,1.445,8.21Z" transform="translate(405.5 754.5)" fill="#00bfa6"/>
    <path id="Tracé_9" data-name="Tracé 9" d="M369.517,371.266a35.88,35.88,0,1,0,35.879-35.88h0a35.79,35.79,0,0,0-35.88,35.7Q369.517,371.177,369.517,371.266Z" transform="translate(405.5 754.5)" fill="#ffb7b7"/>
    <path id="Tracé_10" data-name="Tracé 10" d="M520,571.238h0a7.722,7.722,0,0,1-7.722,7.722H305.722A7.722,7.722,0,0,1,298,571.238h0a7.722,7.722,0,0,1,7.722-7.722h2.293a5.3,5.3,0,0,1-.2-1.414V456.649a6.706,6.706,0,0,1,6.706-6.706H503.482a6.706,6.706,0,0,1,6.706,6.706V562.1a4.992,4.992,0,0,1-.2,1.414h2.293A7.722,7.722,0,0,1,520,571.238Z" transform="translate(405.5 754.5)" fill="#3f3d56"/>
    <path id="Tracé_11" data-name="Tracé 11" d="M413,510.171a11.936,11.936,0,1,1,11.936-11.936A11.936,11.936,0,0,1,413,510.171Zm0-21.873a9.936,9.936,0,1,0,9.936,9.936A9.936,9.936,0,0,0,413,488.3Z" transform="translate(405.5 754.5)" fill="#fff"/>
    <circle id="Ellipse_1" data-name="Ellipse 1" cx="10.936" cy="10.936" r="10.936" transform="translate(803.564 1237.799)" fill="#fff"/>
    <path id="Tracé_22" data-name="Tracé 22" d="M446.039,341.462a24.292,24.292,0,0,1-6.878-8.359,11.3,11.3,0,0,0-2.376-3.321L430,335l4.146-7.221c-10.619-6.419-31.354-3.01-31.354-3.01-21.57-11.486-29.491,2.852-32.252,11.945a20.04,20.04,0,0,1-5.6,8.563C359.621,350.35,368,360.219,368,360.219v.7l2,13.584s2-9,7.278-15.324c3.328-3.987,8.743-6.358,11.259-6.309,32.463.633,38.609,1.918,38.609,1.918s5.5,2.953,7.923,4.193C442.913,362.987,441,377.5,441,377.5l5.861-25.759C448.214,345.5,447.463,342.632,446.039,341.462Z" transform="translate(405.5 754.5)" fill="#2f2e41"/>
  </g>
</svg>
